<svg xmlns="http://www.w3.org/2000/svg" xmlns:xlink="http://www.w3.org/1999/xlink" width="500" zoomAndPan="magnify" viewBox="0 0 375 374.999991" height="500" preserveAspectRatio="xMidYMid meet" version="1.0"><defs><filter x="0%" y="0%" width="100%" height="100%" id="042c8c7fe6"><feColorMatrix values="0 0 0 0 1 0 0 0 0 1 0 0 0 0 1 0 0 0 1 0" color-interpolation-filters="sRGB"/></filter><clipPath id="f67d112c98"><path d="M 133.050781 125.980469 L 360.078125 125.980469 L 360.078125 353.003906 L 133.050781 353.003906 Z M 133.050781 125.980469 " clip-rule="nonzero"/></clipPath><clipPath id="09a760c41e"><path d="M 246.566406 125.980469 C 183.875 125.980469 133.050781 176.800781 133.050781 239.492188 C 133.050781 302.179688 183.875 353.003906 246.566406 353.003906 C 309.253906 353.003906 360.078125 302.179688 360.078125 239.492188 C 360.078125 176.800781 309.253906 125.980469 246.566406 125.980469 Z M 246.566406 125.980469 " clip-rule="nonzero"/></clipPath><mask id="be86ae9f32"><g filter="url(#042c8c7fe6)"><rect x="-37.5" width="450" fill="#000000" y="-37.499999" height="449.999989" fill-opacity="0.71"/></g></mask><clipPath id="f51b50b418"><path d="M 0.753906 0.671875 L 260.425781 0.671875 L 260.425781 227.550781 L 0.753906 227.550781 Z M 0.753906 0.671875 " clip-rule="nonzero"/></clipPath><clipPath id="666de74dfa"><path d="M 130.398438 0.671875 L 260.042969 227.550781 L 0.753906 227.550781 Z M 130.398438 0.671875 " clip-rule="nonzero"/></clipPath><clipPath id="f7c941229b"><rect x="0" width="261" y="0" height="228"/></clipPath></defs><g clip-path="url(#f67d112c98)"><g clip-path="url(#09a760c41e)"><path fill="#d9d9d9" d="M 133.050781 125.980469 L 360.078125 125.980469 L 360.078125 353.003906 L 133.050781 353.003906 Z M 133.050781 125.980469 " fill-opacity="1" fill-rule="nonzero"/></g></g><g mask="url(#be86ae9f32)"><g transform="matrix(1, 0, 0, 1, 10, 30)"><g clip-path="url(#f7c941229b)"><g clip-path="url(#f51b50b418)"><g clip-path="url(#666de74dfa)"><path fill="#000000" d="M 0.753906 0.671875 L 260.425781 0.671875 L 260.425781 227.550781 L 0.753906 227.550781 Z M 0.753906 0.671875 " fill-opacity="1" fill-rule="nonzero"/></g></g></g></g></g></svg>